<svg width="24" height="24" viewBox="0 0 24 24" fill="none" xmlns="http://www.w3.org/2000/svg">
<path d="M18.3656 18.3655C16.6765 20.052 14.387 20.9993 12 20.9993C9.61301 20.9993 7.32357 20.052 5.63439 18.3655C5.49413 18.2249 5.41536 18.0344 5.41536 17.8358C5.41536 17.6372 5.49413 17.4467 5.63439 17.3061C5.70337 17.2355 5.78576 17.1794 5.87672 17.1411C5.96768 17.1028 6.06538 17.0831 6.16407 17.0831C6.26277 17.0831 6.36047 17.1028 6.45143 17.1411C6.54239 17.1794 6.62478 17.2355 6.69376 17.3061C7.74299 18.3542 9.07937 19.0676 10.534 19.3563C11.9886 19.6451 13.4962 19.496 14.8662 18.9281C16.2361 18.3602 17.407 17.3989 18.2307 16.1658C19.0545 14.9326 19.4941 13.4829 19.4941 11.9999C19.4941 10.5168 19.0545 9.06713 18.2307 7.83394C17.407 6.60075 16.2361 5.63946 14.8662 5.07155C13.4962 4.50365 11.9886 4.35464 10.534 4.64335C9.07937 4.93206 7.74299 5.64554 6.69376 6.6936L6.29064 7.09673L8.01564 8.82173C8.11895 8.92713 8.18887 9.06067 8.21664 9.20563C8.24441 9.35058 8.22879 9.50051 8.17174 9.63663C8.11469 9.77275 8.01874 9.88901 7.89592 9.97086C7.77309 10.0527 7.62885 10.0965 7.48126 10.0967H2.98126C2.78235 10.0967 2.59158 10.0177 2.45093 9.87706C2.31028 9.7364 2.23126 9.54564 2.23126 9.34673V4.84673C2.23399 4.69816 2.27971 4.55356 2.36291 4.43044C2.4461 4.30731 2.56319 4.21094 2.70001 4.15298C2.83742 4.09735 2.98823 4.08369 3.1334 4.11372C3.27857 4.14376 3.41158 4.21614 3.51564 4.32173L5.23126 6.03735L5.63439 5.63423C7.32266 3.94596 9.61244 2.9975 12 2.9975C14.3876 2.9975 16.6774 3.94596 18.3656 5.63423C20.0539 7.32249 21.0024 9.61228 21.0024 11.9999C21.0024 14.3874 20.0539 16.6772 18.3656 18.3655Z" fill="white"/>
<path d="M11.1173 9.90397V14.0049H10.4966V10.5247H10.4725L9.49136 11.1655V10.5728L10.5146 9.90397H11.1173Z" fill="white"/>
<path d="M13.6543 14.0729C13.338 14.0716 13.0676 13.9882 12.8434 13.8226C12.6191 13.6571 12.4476 13.4162 12.3288 13.0998C12.2099 12.7834 12.1505 12.4023 12.1505 11.9564C12.1505 11.5119 12.2099 11.1321 12.3288 10.8171C12.4489 10.502 12.6211 10.2617 12.8454 10.0962C13.071 9.93067 13.3406 9.8479 13.6543 9.8479C13.968 9.8479 14.237 9.93133 14.4613 10.0982C14.6856 10.2637 14.8571 10.504 14.9759 10.8191C15.0961 11.1328 15.1561 11.5119 15.1561 11.9564C15.1561 12.4036 15.0967 12.7854 14.9779 13.1018C14.8591 13.4168 14.6876 13.6578 14.4633 13.8246C14.239 13.9902 13.9694 14.0729 13.6543 14.0729ZM13.6543 13.5383C13.932 13.5383 14.1489 13.4028 14.3051 13.1318C14.4626 12.8608 14.5414 12.469 14.5414 11.9564C14.5414 11.616 14.5054 11.3283 14.4333 11.0934C14.3625 10.8571 14.2604 10.6782 14.1269 10.5567C13.9947 10.4339 13.8372 10.3725 13.6543 10.3725C13.378 10.3725 13.1611 10.5087 13.0036 10.781C12.846 11.0533 12.7666 11.4451 12.7653 11.9564C12.7653 12.2982 12.8006 12.5872 12.8714 12.8235C12.9435 13.0584 13.0456 13.2366 13.1778 13.3581C13.3099 13.4782 13.4688 13.5383 13.6543 13.5383Z" fill="white"/>
</svg>
