<svg width="32" height="32" viewBox="0 0 32 32" fill="none" xmlns="http://www.w3.org/2000/svg">
<path d="M11.5 13C10.24 13 9 14.213 9 16C9 17.787 10.24 19 11.5 19C11.9585 18.9978 12.4045 18.8504 12.774 18.579C12.8806 18.4998 13.0019 18.4427 13.1309 18.4109C13.2598 18.3791 13.3938 18.3733 13.525 18.3938C13.6562 18.4144 13.782 18.4609 13.895 18.5305C14.008 18.6002 14.1061 18.6917 14.1834 18.7997C14.2607 18.9077 14.3157 19.03 14.3452 19.1595C14.3747 19.2889 14.3782 19.423 14.3553 19.5538C14.3325 19.6846 14.2838 19.8096 14.2122 19.9214C14.1405 20.0332 14.0473 20.1296 13.938 20.205C13.229 20.7195 12.376 20.9977 11.5 21C8.893 21 7 18.632 7 16C7 13.368 8.893 11 11.5 11C12.45 11 13.322 11.326 14.036 11.867C14.2474 12.0272 14.3865 12.2648 14.4227 12.5275C14.4589 12.7903 14.3892 13.0566 14.229 13.268C14.0688 13.4794 13.8312 13.6185 13.5685 13.6547C13.3057 13.6909 13.0394 13.6212 12.828 13.461C12.4483 13.1651 11.9814 13.003 11.5 13ZM19 16C19 14.213 20.24 13 21.5 13C21.979 13 22.434 13.162 22.828 13.46C23.0398 13.6115 23.3023 13.6745 23.5598 13.6354C23.8172 13.5964 24.0493 13.4584 24.2067 13.2509C24.364 13.0435 24.4342 12.7828 24.4023 12.5243C24.3705 12.2659 24.239 12.03 24.036 11.867C23.3087 11.3076 22.4176 11.003 21.5 11C18.893 11 17 13.368 17 16C17 18.632 18.893 21 21.5 21C22.376 20.9977 23.229 20.7195 23.938 20.205C24.0473 20.1296 24.1405 20.0332 24.2122 19.9214C24.2838 19.8096 24.3325 19.6846 24.3553 19.5538C24.3782 19.423 24.3747 19.2889 24.3452 19.1595C24.3157 19.03 24.2607 18.9077 24.1834 18.7997C24.1061 18.6917 24.008 18.6002 23.895 18.5305C23.782 18.4609 23.6562 18.4144 23.525 18.3938C23.3938 18.3733 23.2598 18.3791 23.1309 18.4109C23.0019 18.4427 22.8806 18.4998 22.774 18.579C22.4044 18.8503 21.9585 18.9976 21.5 19C20.24 19 19 17.787 19 16ZM2 8.5C2 7.30653 2.47411 6.16193 3.31802 5.31802C4.16193 4.47411 5.30653 4 6.5 4H25.5C26.6935 4 27.8381 4.47411 28.682 5.31802C29.5259 6.16193 30 7.30653 30 8.5V23.5C30 24.6935 29.5259 25.8381 28.682 26.682C27.8381 27.5259 26.6935 28 25.5 28H6.5C5.30653 28 4.16193 27.5259 3.31802 26.682C2.47411 25.8381 2 24.6935 2 23.5V8.5ZM6.5 6C5.83696 6 5.20107 6.26339 4.73223 6.73223C4.26339 7.20107 4 7.83696 4 8.5V23.5C4 24.163 4.26339 24.7989 4.73223 25.2678C5.20107 25.7366 5.83696 26 6.5 26H25.5C26.163 26 26.7989 25.7366 27.2678 25.2678C27.7366 24.7989 28 24.163 28 23.5V8.5C28 7.83696 27.7366 7.20107 27.2678 6.73223C26.7989 6.26339 26.163 6 25.5 6H6.5Z" fill="white"/>
</svg>
