<svg width="33" height="33" viewBox="0 0 33 33" fill="none" xmlns="http://www.w3.org/2000/svg">
<path fill-rule="evenodd" clip-rule="evenodd" d="M16.8134 4.85502C18.2872 4.85502 19.7466 5.14531 21.1083 5.70933C22.4699 6.27334 23.7072 7.10004 24.7493 8.14221C25.7915 9.18437 26.6182 10.4216 27.1822 11.7833C27.7462 13.1449 28.0365 14.6043 28.0365 16.0782C28.0365 17.552 27.7462 19.0114 27.1822 20.3731C26.6182 21.7348 25.7915 22.972 24.7493 24.0142C23.7072 25.0563 22.4699 25.883 21.1083 26.447C19.7466 27.0111 18.2872 27.3014 16.8134 27.3014V29.3279C17.1552 29.3279 17.4964 29.3147 17.8361 29.2884C19.2259 29.1808 20.5921 28.8544 21.8838 28.3194C23.4913 27.6535 24.952 26.6775 26.1823 25.4472C27.4127 24.2168 28.3887 22.7562 29.0545 21.1486C29.7204 19.5411 30.0631 17.8182 30.0631 16.0782C30.0631 14.3382 29.7204 12.6153 29.0545 11.0077C28.3887 9.40019 27.4127 7.93955 26.1823 6.70919C24.952 5.47884 23.4913 4.50287 21.8838 3.83701C20.5921 3.30196 19.2259 2.97556 17.8361 2.86797C17.4964 2.84166 17.1552 2.82843 16.8134 2.82843V4.85502Z" fill="white"/>
<path fill-rule="evenodd" clip-rule="evenodd" d="M15.5147 2.89223C15.6065 2.88318 15.6985 2.87509 15.7906 2.86797C15.9607 2.85479 16.1312 2.8449 16.302 2.8383C16.4722 2.83173 16.6427 2.82843 16.8134 2.82843V4.85502C16.4453 4.85502 16.0782 4.87312 15.7133 4.90906L15.5147 2.89223ZM13.5554 5.33828L12.9672 3.39896C12.5529 3.52463 12.1443 3.67074 11.7429 3.83701C11.3415 4.00327 10.9492 4.18887 10.5675 4.39294L11.5228 6.18023C11.8462 6.00738 12.1784 5.85016 12.5184 5.70933C12.8584 5.56849 13.2045 5.44472 13.5554 5.33828ZM9.69345 7.40256L8.4078 5.83599C8.07316 6.11062 7.75158 6.40197 7.44436 6.70919C7.13714 7.01641 6.84578 7.33799 6.57115 7.67263L8.13773 8.95828C8.37035 8.67483 8.61715 8.40244 8.87737 8.14221C9.1376 7.88198 9.41 7.63518 9.69345 7.40256ZM6.9154 10.7876L5.12811 9.83229C4.92404 10.2141 4.73844 10.6063 4.57218 11.0077C4.40591 11.4091 4.25979 11.8177 4.13413 12.232L6.07345 12.8203C6.17989 12.4694 6.30366 12.1233 6.4445 11.7833C6.58533 11.4433 6.74255 11.111 6.9154 10.7876ZM5.64423 14.9781L3.6274 14.7795C3.58497 15.2103 3.5636 15.6437 3.5636 16.0782C3.5636 16.5127 3.58497 16.9461 3.6274 17.3769L5.64423 17.1782C5.60828 16.8133 5.59018 16.4462 5.59018 16.0782C5.59018 15.7102 5.60828 15.343 5.64423 14.9781ZM6.07345 19.3361L4.13413 19.9244C4.25979 20.3386 4.40591 20.7472 4.57218 21.1486C4.73844 21.55 4.92404 21.9423 5.12811 22.3241L6.9154 21.3688C6.74254 21.0454 6.58533 20.7131 6.4445 20.3731C6.30366 20.0331 6.17989 19.687 6.07345 19.3361ZM8.13773 23.1981L6.57115 24.4837C6.84578 24.8184 7.13714 25.14 7.44436 25.4472C7.75158 25.7544 8.07316 26.0458 8.4078 26.3204L9.69345 24.7538C9.41 24.5212 9.1376 24.2744 8.87738 24.0142C8.61715 23.7539 8.37035 23.4815 8.13773 23.1981ZM11.5228 25.9761L10.5675 27.7634C10.9492 27.9675 11.3415 28.1531 11.7429 28.3194C12.1443 28.4856 12.5529 28.6317 12.9672 28.7574L13.5554 26.8181C13.2045 26.7116 12.8584 26.5879 12.5184 26.447C12.1784 26.3062 11.8462 26.149 11.5228 25.9761ZM16.8134 29.3279C16.6427 29.3279 16.4722 29.3246 16.302 29.3181C16.1312 29.3115 15.9607 29.3016 15.7906 29.2884C15.6985 29.2813 15.6065 29.2732 15.5147 29.2641L15.7133 27.2473C16.0782 27.2833 16.4453 27.3014 16.8134 27.3014V29.3279Z" fill="white"/>
<path d="M20.8727 16.4942C21.1696 16.2963 21.1696 15.86 20.8727 15.6621L15.0619 11.7883C14.7296 11.5667 14.2845 11.8049 14.2845 12.2043V19.952C14.2845 20.3514 14.7296 20.5896 15.0619 20.3681L20.8727 16.4942Z" fill="white"/>
</svg>
