<svg width="25" height="25" viewBox="0 0 25 25" fill="none" xmlns="http://www.w3.org/2000/svg">
<path d="M12.8133 0.399414C10.5035 0.399414 8.24553 1.08435 6.32499 2.36762C4.40444 3.65089 2.90756 5.47484 2.02363 7.60884C1.1397 9.74283 0.908428 12.091 1.35905 14.3565C1.80967 16.6219 2.92196 18.7028 4.55525 20.3361C6.18853 21.9694 8.26947 23.0817 10.5349 23.5323C12.8003 23.9829 15.1485 23.7517 17.2825 22.8677C19.4165 21.9838 21.2405 20.4869 22.5237 18.5664C23.807 16.6458 24.4919 14.3879 24.4919 12.0781C24.486 8.98252 23.2537 6.01545 21.0648 3.82657C18.8759 1.63768 15.9088 0.40535 12.8133 0.399414ZM19.1692 12.8192L14.6774 15.9635C14.5237 16.0639 14.3445 16.1184 14.1608 16.1207C13.9226 16.1207 13.6941 16.026 13.5256 15.8576C13.3571 15.6891 13.2625 15.4606 13.2625 15.2223V12.0781C13.2616 12.2229 13.2266 12.3655 13.1603 12.4943C13.0939 12.6231 12.9981 12.7344 12.8807 12.8192L8.38889 15.9635C8.23515 16.0639 8.05596 16.1184 7.87233 16.1207C7.63407 16.1207 7.40557 16.026 7.2371 15.8576C7.06862 15.6891 6.97397 15.4606 6.97397 15.2223V8.93381C6.97506 8.76972 7.02051 8.60897 7.10552 8.46861C7.19052 8.32825 7.31192 8.2135 7.45684 8.13652C7.60242 8.05956 7.76636 8.02409 7.93073 8.03399C8.09511 8.04389 8.2536 8.09878 8.38889 8.19267L12.8807 11.3369C12.9981 11.4217 13.0939 11.533 13.1603 11.6618C13.2266 11.7906 13.2616 11.9332 13.2625 12.0781V8.93381C13.2636 8.76972 13.309 8.60897 13.394 8.46861C13.479 8.32825 13.6004 8.2135 13.7453 8.13652C13.8909 8.05956 14.0549 8.02409 14.2192 8.03399C14.3836 8.04389 14.5421 8.09878 14.6774 8.19267L19.1692 11.3369C19.2874 11.421 19.3838 11.5322 19.4503 11.6611C19.5168 11.79 19.5515 11.933 19.5515 12.0781C19.5515 12.2231 19.5168 12.3661 19.4503 12.495C19.3838 12.624 19.2874 12.7351 19.1692 12.8192Z" fill="white"/>
</svg>
