<svg width="25" height="24" viewBox="0 0 25 24" fill="none" xmlns="http://www.w3.org/2000/svg">
<path d="M6.38082 18.3655C8.07 20.052 10.3594 20.9993 12.7464 20.9993C15.1335 20.9993 17.4229 20.052 19.1121 18.3655C19.2523 18.2249 19.3311 18.0344 19.3311 17.8358C19.3311 17.6372 19.2523 17.4467 19.1121 17.3061C19.0431 17.2355 18.9607 17.1794 18.8697 17.1411C18.7788 17.1028 18.6811 17.0831 18.5824 17.0831C18.4837 17.0831 18.386 17.1028 18.295 17.1411C18.2041 17.1794 18.1217 17.2355 18.0527 17.3061C17.0035 18.3542 15.6671 19.0676 14.2125 19.3563C12.7578 19.6451 11.2503 19.496 9.88029 18.9281C8.51034 18.3602 7.33949 17.3989 6.51575 16.1658C5.69201 14.9326 5.25235 13.4829 5.25235 11.9999C5.25235 10.5168 5.69201 9.06713 6.51575 7.83394C7.33949 6.60075 8.51034 5.63946 9.88029 5.07155C11.2503 4.50365 12.7578 4.35464 14.2125 4.64335C15.6671 4.93206 17.0035 5.64554 18.0527 6.6936L18.4558 7.09673L16.7308 8.82173C16.6275 8.92713 16.5576 9.06067 16.5298 9.20563C16.5021 9.35058 16.5177 9.50051 16.5747 9.63663C16.6318 9.77275 16.7277 9.88901 16.8505 9.97086C16.9734 10.0527 17.1176 10.0965 17.2652 10.0967H21.7652C21.9641 10.0967 22.1549 10.0177 22.2955 9.87706C22.4362 9.7364 22.5152 9.54564 22.5152 9.34673V4.84673C22.5125 4.69816 22.4667 4.55356 22.3836 4.43044C22.3004 4.30731 22.1833 4.21094 22.0464 4.15298C21.909 4.09735 21.7582 4.08369 21.6131 4.11372C21.4679 4.14376 21.3349 4.21614 21.2308 4.32173L19.5152 6.03735L19.1121 5.63423C17.4238 3.94596 15.134 2.9975 12.7464 2.9975C10.3589 2.9975 8.06909 3.94596 6.38082 5.63423C4.69255 7.32249 3.74409 9.61228 3.74409 11.9999C3.74409 14.3874 4.69255 16.6772 6.38082 18.3655Z" fill="white"/>
<path d="M11.54 9.90397V14.0049H10.9193V10.5247H10.8952L9.91406 11.1655V10.5728L10.9373 9.90397H11.54Z" fill="white"/>
<path d="M14.077 14.0729C13.7607 14.0716 13.4903 13.9882 13.2661 13.8226C13.0418 13.6571 12.8703 13.4162 12.7515 13.0998C12.6326 12.7834 12.5732 12.4023 12.5732 11.9564C12.5732 11.5119 12.6326 11.1321 12.7515 10.8171C12.8716 10.502 13.0438 10.2617 13.2681 10.0962C13.4937 9.93067 13.7633 9.8479 14.077 9.8479C14.3907 9.8479 14.6597 9.93133 14.884 10.0982C15.1083 10.2637 15.2798 10.504 15.3986 10.8191C15.5188 11.1328 15.5788 11.5119 15.5788 11.9564C15.5788 12.4036 15.5194 12.7854 15.4006 13.1018C15.2818 13.4168 15.1103 13.6578 14.886 13.8246C14.6617 13.9902 14.3921 14.0729 14.077 14.0729ZM14.077 13.5383C14.3547 13.5383 14.5716 13.4028 14.7278 13.1318C14.8853 12.8608 14.9641 12.469 14.9641 11.9564C14.9641 11.616 14.9281 11.3283 14.856 11.0934C14.7852 10.8571 14.6831 10.6782 14.5496 10.5567C14.4174 10.4339 14.2599 10.3725 14.077 10.3725C13.8007 10.3725 13.5838 10.5087 13.4263 10.781C13.2687 11.0533 13.1893 11.4451 13.188 11.9564C13.188 12.2982 13.2233 12.5872 13.2941 12.8235C13.3662 13.0584 13.4683 13.2366 13.6005 13.3581C13.7326 13.4782 13.8915 13.5383 14.077 13.5383Z" fill="white"/>
</svg>
