<svg width="25" height="26" viewBox="0 0 25 26" fill="none" xmlns="http://www.w3.org/2000/svg">
<path d="M7.92144 2.69812H4.48752C3.88037 2.69812 3.29808 2.93931 2.86876 3.36863C2.43943 3.79796 2.19824 4.38024 2.19824 4.9874V8.42132M22.8018 8.42132V4.9874C22.8018 4.38024 22.5606 3.79796 22.1312 3.36863C21.7019 2.93931 21.1196 2.69812 20.5125 2.69812H17.0786M17.0786 23.3016H20.5125C21.1196 23.3016 21.7019 23.0604 22.1312 22.6311C22.5606 22.2018 22.8018 21.6195 22.8018 21.0124V17.5784M2.19824 17.5784V21.0124C2.19824 21.6195 2.43943 22.2018 2.86876 22.6311C3.29808 23.0604 3.88037 23.3016 4.48752 23.3016H7.92144" stroke="white" stroke-width="2" stroke-linecap="round" stroke-linejoin="round"/>
</svg>
