<svg width="32" height="32" viewBox="0 0 32 32" fill="none" xmlns="http://www.w3.org/2000/svg">
<path d="M15 17.9999V25.4999C15.0006 25.6973 14.9428 25.8905 14.8338 26.0551C14.7248 26.2197 14.5695 26.3484 14.3875 26.4249C14.2642 26.4739 14.1327 26.4993 14 26.4999C13.7345 26.4988 13.4795 26.3959 13.2875 26.2124L10.25 23.1624L5.70002 27.7124C5.51336 27.8962 5.26201 27.9994 5.00002 27.9999C4.73448 27.9988 4.47948 27.8959 4.28752 27.7124C4.10051 27.5249 3.99548 27.2709 3.99548 27.0061C3.99548 26.7413 4.10051 26.4873 4.28752 26.2999L8.83752 21.7499L5.78752 18.7124C5.65186 18.5678 5.55991 18.3878 5.5223 18.1931C5.4847 17.9984 5.50298 17.7971 5.57502 17.6124C5.65152 17.4304 5.78019 17.2751 5.9448 17.1661C6.10941 17.0571 6.3026 16.9993 6.50002 16.9999H14C14.2652 16.9999 14.5196 17.1052 14.7071 17.2928C14.8947 17.4803 15 17.7347 15 17.9999ZM26 3.99988H9.00002C8.46959 3.99988 7.96088 4.21059 7.58581 4.58566C7.21073 4.96074 7.00002 5.46944 7.00002 5.99988V11.9999C7.00002 12.2651 7.10538 12.5194 7.29291 12.707C7.48045 12.8945 7.7348 12.9999 8.00002 12.9999C8.26524 12.9999 8.51959 12.8945 8.70713 12.707C8.89466 12.5194 9.00002 12.2651 9.00002 11.9999V5.99988H26V22.9999H20C19.7348 22.9999 19.4804 23.1052 19.2929 23.2928C19.1054 23.4803 19 23.7347 19 23.9999C19 24.2651 19.1054 24.5194 19.2929 24.707C19.4804 24.8945 19.7348 24.9999 20 24.9999H26C26.5305 24.9999 27.0392 24.7892 27.4142 24.4141C27.7893 24.039 28 23.5303 28 22.9999V5.99988C28 5.46944 27.7893 4.96074 27.4142 4.58566C27.0392 4.21059 26.5305 3.99988 26 3.99988Z" fill="white"/>
</svg>
