<svg width="25" height="25" viewBox="0 0 25 25" fill="none" xmlns="http://www.w3.org/2000/svg">
<path d="M1.90479 3.3242C1.90479 3.05123 1.98992 2.78945 2.14147 2.59643C2.29302 2.40342 2.49856 2.29498 2.71288 2.29498H20.491C20.7053 2.29498 20.9108 2.40342 21.0624 2.59643C21.2139 2.78945 21.2991 3.05123 21.2991 3.3242C21.2991 3.59717 21.2139 3.85895 21.0624 4.05197C20.9108 4.24498 20.7053 4.35342 20.491 4.35342H2.71288C2.49856 4.35342 2.29302 4.24498 2.14147 4.05197C1.98992 3.85895 1.90479 3.59717 1.90479 3.3242ZM12.41 10.5287H2.71288C2.49856 10.5287 2.29302 10.6372 2.14147 10.8302C1.98992 11.0232 1.90479 11.285 1.90479 11.5579C1.90479 11.8309 1.98992 12.0927 2.14147 12.2857C2.29302 12.4787 2.49856 12.5872 2.71288 12.5872H12.41C12.6243 12.5872 12.8299 12.4787 12.9814 12.2857C13.133 12.0927 13.2181 11.8309 13.2181 11.5579C13.2181 11.285 13.133 11.0232 12.9814 10.8302C12.8299 10.6372 12.6243 10.5287 12.41 10.5287ZM12.41 18.7625H2.71288C2.49856 18.7625 2.29302 18.8709 2.14147 19.0639C1.98992 19.2569 1.90479 19.5187 1.90479 19.7917C1.90479 20.0646 1.98992 20.3264 2.14147 20.5194C2.29302 20.7125 2.49856 20.8209 2.71288 20.8209H12.41C12.6243 20.8209 12.8299 20.7125 12.9814 20.5194C13.133 20.3264 13.2181 20.0646 13.2181 19.7917C13.2181 19.5187 13.133 19.2569 12.9814 19.0639C12.8299 18.8709 12.6243 18.7625 12.41 18.7625ZM23.3395 14.8L16.8747 9.65388C16.7524 9.55775 16.6121 9.50494 16.4684 9.50089C16.3246 9.49684 16.1826 9.5417 16.0571 9.63085C15.9315 9.72 15.8268 9.85021 15.754 10.008C15.6811 10.1659 15.6426 10.3456 15.6424 10.5287V20.8209C15.6432 21.0041 15.6819 21.1839 15.7546 21.342C15.8273 21.5001 15.9314 21.631 16.0565 21.7215C16.1824 21.8103 16.3245 21.8548 16.4684 21.8503C16.6122 21.8457 16.7525 21.7924 16.8747 21.6957L23.3395 16.5496C23.4564 16.4573 23.5529 16.3285 23.6199 16.1754C23.6868 16.0223 23.7219 15.85 23.7219 15.6748C23.7219 15.4996 23.6868 15.3273 23.6199 15.1742C23.5529 15.0211 23.4564 14.8923 23.3395 14.8Z" fill="white"/>
</svg>
