<svg width="33" height="33" viewBox="0 0 33 33" fill="none" xmlns="http://www.w3.org/2000/svg">
<path d="M16.8134 20.54C19.2776 20.54 21.2753 18.5424 21.2753 16.0782C21.2753 13.614 19.2776 11.6163 16.8134 11.6163C14.3492 11.6163 12.3516 13.614 12.3516 16.0782C12.3516 18.5424 14.3492 20.54 16.8134 20.54Z" stroke="white" stroke-width="1.5" stroke-linecap="round" stroke-linejoin="round"/>
<path d="M23.6859 7.58609C23.744 7.99329 23.947 8.36819 24.2379 8.65904V8.65904C24.5293 8.95038 24.8987 9.14754 25.3066 9.20581L26.6419 9.39656C27.5549 9.527 28.3773 10.0618 28.7442 10.908C28.799 11.0343 28.8518 11.1616 28.9025 11.2896C29.2427 12.1485 29.039 13.11 28.4842 13.8486L27.6585 14.9479C27.4191 15.2665 27.2943 15.4938 27.3019 15.8922V15.8922C27.31 16.3166 27.4293 16.9035 27.6843 17.2429L28.4856 18.3097C29.0396 19.0473 29.2438 20.0071 28.9044 20.8649C28.8531 20.9945 28.7997 21.1232 28.7442 21.2511C28.3775 22.0959 27.5559 22.6293 26.6442 22.7595L25.2954 22.9522C24.8939 23.0095 24.6365 23.0842 24.3523 23.3735V23.3735C24.0589 23.6719 23.7435 24.167 23.6843 24.5813L23.4949 25.9068C23.3645 26.8198 22.8297 27.6422 21.9835 28.0091C21.8572 28.0639 21.7299 28.1167 21.6019 28.1674C20.743 28.5076 19.7816 28.3039 19.0429 27.7491L17.9612 26.9366C17.6326 26.6898 17.2243 26.5813 16.8133 26.5813V26.5813C16.4023 26.5813 15.994 26.6898 15.6654 26.9366L14.5818 27.7505C13.8442 28.3045 12.8844 28.5087 12.0266 28.1693C11.897 28.118 11.7683 28.0646 11.6404 28.0091C10.7956 27.6424 10.2622 26.8208 10.132 25.9091L9.94082 24.5708C9.88253 24.1628 9.68598 23.7884 9.39456 23.4969V23.4969C9.10313 23.2055 8.72872 23.009 8.32072 22.9507L6.98475 22.7598C6.07172 22.6294 5.24933 22.0946 4.88239 21.2484C4.82759 21.1221 4.77482 20.9948 4.72409 20.8668C4.38388 20.0079 4.58761 19.0464 5.14243 18.3078L5.96814 17.2085C6.20746 16.8899 6.33232 16.6626 6.32473 16.2642V16.2642C6.31665 15.8398 6.19727 15.2529 5.94234 14.9135L5.14101 13.8467C4.587 13.1091 4.3828 12.1493 4.72222 11.2915C4.7735 11.1619 4.8269 11.0332 4.8824 10.9053C5.24911 10.0605 6.07071 9.52714 6.98241 9.3969L8.32072 9.20571C8.72872 9.14742 9.10313 8.95088 9.39456 8.65945V8.65945C9.68598 8.36802 9.88253 7.99362 9.94082 7.58562L10.1317 6.24964C10.2621 5.33661 10.7969 4.51423 11.6431 4.14729C11.7694 4.09248 11.8967 4.03971 12.0247 3.98898C12.8836 3.64877 13.8451 3.8525 14.5837 4.40733L15.6654 5.21983C15.994 5.46665 16.4023 5.57507 16.8133 5.57507V5.57507C17.2243 5.57507 17.6326 5.46665 17.9612 5.21983L19.0448 4.40591C19.7824 3.85189 20.7422 3.64769 21.6 3.98711C21.7296 4.0384 21.8583 4.0918 21.9862 4.14729C22.831 4.514 23.3644 5.3356 23.4946 6.2473L23.6859 7.58609Z" stroke="white" stroke-width="1.7" stroke-linecap="round" stroke-linejoin="round"/>
</svg>
